<svg clip-rule="evenodd" stroke-linecap="round" fill="#0e1722" stroke-linejoin="round" stroke-miterlimit="10" viewBox="0 0 3056.13 160.866" xmlns="http://www.w3.org/2000/svg" xmlns:xlink="http://www.w3.org/1999/xlink"><clipPath id="a"><path clip-rule="evenodd" d="m0 0h3056.13v160.866h-3056.13z"/></clipPath><g clip-path="url(#a)"><path d="m1833.56.0135748c-1.43-.1160008-2.58.5222722-3.56 1.4999952-.24.00154-.48.02165-.72 0-1.18-.10862-2.06-.694007-3.31-.562495-2.19.230845-5.05.904805-7.03 1.718745-1.05.42904-1.19 1.98422-2.13 2.46875-3.41 1.76294-7.83 2.60121-9.9 5.71873-1.17-.0763-2.32-.1181-3.38.1563-1.23.3198-.66 1.3885-2.22 1.5937-1.58.2071-3.23-.2032-4.78.2813-.84.2636-1.41 1.6836-2.09 1.8125-1.52.2894-3.74-.6338-5.22-.0313-.95.3873-1.46 1.8521-2.28 2.125-2.5.8265-5.44-.4633-7.91.8125-1.85.9537-3.36 2.6414-5.41 3.5313-1.49.6543-3.52-.2723-5.09.25-1.39.4615-1.45 1.7945-2.59 2.375-2.4 1.2182-4.05 2.1397-5.41 3.125-1.87-.4112-4.17.3611-5.91-.25-1-.3537-1.95-1.4081-2.84-1.9688-.22-.1395-.56-.0625-.81-.0625-1.17 0-2.14.3562-3.38.2188-.99-.1098-1.81-1.1541-2.93-1-1.11.1515-1.79.8059-2.57 1.3437v7.625c-.5.4511-1.3 1.1465-1.47 1.3125-2.47 2.4139-3.7 6.531-7.37 7.4375-2.57.6343-5.47-.5844-8.09-.4375-2.09.1167-4.03 1.2191-6.07 1.4063-2.4.2216-4.1-.6795-6.28-.875-1.29-.1164-2.28.5625-3.56.5625-3.51-.0001-6.47-1.9855-9.28.4375-2.41 2.0799-3.96.9928-6.72 1.4687-1.07.1847-2.44 2.3107-3.28 2.875-1.5 1.009-3.67.7996-5.31 1.6875-.13.0656-.28.1522-.41.2188-.95-.3819-3.04-.8294-3.81-.2813-1.49 1.0542-2.59 3.4415-4.03 4.75-.95.8564-2.2 1.383-3.19 2.1875-.75.6024-1.37 1.9202-2.35 2.1563-2.68.6515-4.12-1.0905-6.4-1.5-1.5-.269-3.95.1622-5.47.3437-2.14.2563-2.75 2.1141-4.66 2.875-2.09.8357-4.77-.0525-6.97.375-1.49.2899-2.46 2.7268-4.03 3.2188-2.45.7715-4.75-2.2252-7.12-1.2188-.89.3787-1.72 2.7239-2.56 3.4688-.74.6551-2.37.9706-3.29 1.4062-5.57 2.6629-12.06 3.4077-14.62 8.2813-1.78.311-3.81-.4335-5.47.5-1.95 1.0986-1.98 3.9717-4.56 4.4375-2.1.3784-3.58-.6109-5.5-.8438-1.55-.1879-2.65.9692-4.06 1.25-1.19.2367-2.7-.4784-4.04-.3437-.23.0238-.41.1549-.62.2187-.35-.3869-.71-.7629-1.13-.9375-.93-.3934-2.07-.2812-3.06-.2812-4.79-.0001-2 1.6598-4.81 3.5-.12.081-.3.0731-.44.125-2.46-.7725-4.71-1.8216-7.56-.4063-1.33.659-3.3 2.0559-4.5 3.6875-1.72-.1603-3.45-.3635-5 .1563-2.1.7049-3.33 3.2738-5.81 2.7812-1.9-.3765-1.61-1.7113-2.97-2.6562-1.99-1.3824-6.26-1.3215-8.63-1.1875-2.52.1439-3.35 2.8122-4.53 2.875-3.18.1703-3.8-1.0988-6.25-2.8438-.91-.6496-3.1.0563-4.25-.4062-1.3-.5228-2.18-1.5346-3.34-2.25-2.19-1.3457-5.52-2.5786-8.03-3.1563-2.07-.4757-4.32.1918-5.25 1.9375-.7.006-1.41-.0104-2 .3125-.8.4376-1.26 1.4419-2.13 1.7188-1.23.3953-3.28.3016-4.59.4062-2.25.1779-4.19.1273-6.1-1.1562-.95-.6413-1.27-1.6512-2.46-2-1.46-.4266-3.5-.3296-4.75.5625-.52.3676-1.18 1.4778-1.82 1.625-2.07.4763-3.32-.7948-5.22-.9688-2.94-.2704-4.07.6055-6.28 2.125-.74.5136-3.46.3416-4.47.625-.93.2621-1.83.8844-2.87 1.0313-.94.133-1.81.1302-2.69.1562-.42-.8419-.86-1.869-1.19-2.0625-.28-.1673-.7.0446-1.09.1875-.05-.0882-.06-.2332-.12-.3125-.85-1.0936-3.83-.7504-5-.5625-1.42.2262-2.9 1.1685-4.19 2.3125-2.32 1.6179-4.24 3.6134-6.85 4.3125-1.22-1.5728-3.16-3.7515-3.84-4.1562-.73-.4314-2.49.0034-3.31-.0625-2.72-.2174-6.23-1.7291-8.94-.6875-2.12-.123-4.37-.1237-5.87.6875-.86.4612-1.4 1.5702-2.04 2.5-.46-.4403-.88-.8883-1.43-.9375-3.39-.2994-6.85.4925-10.1-.9688-1.39-.6254-.87-3.0026-3.18-3.1875-1.07-.0856-2.46-.1816-3.5.125-.35.1011-.6.2956-.91.4375-.39-.196-.74-.5195-1.16-.625-1.17-.2924-1.83.6565-2.56 1.375-.04-.0706-.01-.226-.06-.2812-.38-.4334-.81-.0528-1.22-.2813-1.62-.9026-3.06-2.0762-4.78-2.5-.18-.1079-.33-.2737-.53-.3437-.5-.1694-1.16-.0767-1.75-.0938-.18-.2124-.5-.529-.63-.6875-.22-.2834-.33-1.4559-.69-1.5625-1.49-.4496-3.07.2178-4.65 1.125-.24-.3872-.45-.8006-.78-1.0937-.63-.5516-5.35-2.6037-6.16-2.6875-2.83-.2957-4.96.8201-7.34 1.75-.71-.575-1.31-1.229-2.19-1.7813-1.6-1.0077-3.69-.9646-5.19-2.25-1-.8561-1.43-2.484-2.56-3.1875-1.07-.6682-2.36-.9066-3.47-1.5312-.99-.5599-1.45-1.6256-2.37-2.2188-2.15-1.3778-4.72-1.9618-7-3-3.17-1.4368-4.22-3.7755-8.19-2.8125-.66.159-1.27.6658-1.91 1.125-.02-.0322-.04-.093-.06-.125-1.83-2.6209-3.09-.4954-5.25-1.6875-1.88-1.04-2.48-3.4895-3.59-4.0312-2.55-1.2342-5.61-.6083-8.32-1.5625-1.36-.4804-2.04-1.3258-3.12-2.1563-2.3-1.7626-6.01-3.2963-8.75-4.0937-1.05-.3037-4.16-.3818-4.94.1562-.71.4881-1.24 2.4223-2.12 2.3125-2.22-.2745-3.9-2.2298-6.19-2.5-3.52-.4145-4.78 1.2063-7.85 2.0938-3.64 1.0553-7.54.7828-11.18 1.875-.94.2807-1.97.8792-3 1.5-.01-.0106-.02-.0211-.03-.0313-2.37-2.342-9.52 3.3274-12.82 3-4.15-.4117-7.96-2.261-12.28-1.5625-2.15.3487-2.78 2.1638-4.47 3.1875-.58.3527-2.26.0189-2.93 0-.98-.0268-1.79-.5964-2.72-.75-1.05-.1731-2.36.6741-3.6.375-2.32-.5638-5.57-2.3518-7.97-1.9062-1.11.2066-1.39 2.3939-2.43 2.8125-1.3.5192-3.19-.1863-4.57-.0313-2.17.2452-4.9 1.3831-6.93 2.2188-1.67.6867-3.02 1.7085-4.35 2.75-.75-.2217-1.53-.4204-2.22-.6875-2.54-.9954-3.24-2.4634-6.31-1.9375-1.5.2563-2.32 2.1045-3.81 2.2812-1.75.2073-4.52-.6451-6.03.2813-1.45.8866-1.49 3.0092-2.97 3.9062-1.19.7244-2.75-.3933-4.03.7188-.85.7387-1.28 2.4193-2.47 2.75-1.92.5342-3.91-.4696-5.72-.8438-.21-.0431-.47-.026-.69-.0625-.89-1.38-1.82-2.5453-2.65-2.9687-1.97-.9966-4.76.2665-6.75-.4375-1.01-.3537-1.95-1.4081-2.85-1.9688-.22-.1395-.56-.0625-.81-.0625-1.17 0-2.14.3562-3.37.2188-.99-.1098-1.82-1.154-2.94-1-2.05.281-2.65 2.3165-5.06 2.0625-1.48-.1557-1.7-1.2779-2.54-2.1563-.54-.5696-2.81-1.1304-3.62-1.25-3.3-.4851-5.32 2.5564-8.44 1.9688-1.37-.2588-2.08-1.6298-3.25-2-2.22-.7044-4.51-.3165-6.75-.6563-.78-.1183-1.35-1.0129-2.03-1.0937-2.68-.3156-3.78 2.0964-6.28 1.8437-1.8-.1817-3.47-1.6066-5.25-1.7187-2.06-.1297-3.09.8019-4.91 1.25-2.8.6927-5.76-1.0806-8.47-.3125-.77.2209-1.07.5173-1.56.7812-.96-.022-2.3.5925-3 .6875-1.58.2159-3.57.1479-5.06-.4062-1.55-.5753-2.45-1.9717-4.25-2.1875-2.9-.3488-6.02.4798-8.88-.2813-2.72-.7269-4.31-3.6614-7.37-3.4062-2.38.198-3.5 3.5951-7.19 3.375-3.38-.2018-5.89-3.4929-9.31-3.7813-3.68-.3106-7.23 1.3704-10.19 3.5313-.03.0258-.06.068-.09.0937-2.07 1.0044-3.9 2.6793-5.75 4-1.34.9497-3.02 1.1063-4.47 1.8125-2.06 1.0002-3.87 2.4377-6 3.3438-2.97 1.2622-3.1-2.5491-5.31-2.7813-1.74-.1819-4.58-.3923-6.22.125-2.32.7314-1.51 2.043-4.91 1.5938-2.53-.336-4.38-3.373-7.03-3.2188-2.81.1643-5.6 2.4303-7.28 4.5-.904 1.1158-2.063 3.4369-3.688 3.625-2.327.2692-3.771-.1221-5.625-1.4375-.804-.5703-2.241-2.433-3.375-1.9687-.593.243-.688 1.079-1.281 1.375-1.61.8025-3.695.7529-5.406 1.4687-1.959.8195-2.998 2.5494-5.313 2.75-1.302.1132-3.512.2936-4.656-.375-.884-.5166-1.251-2.0226-2.312-2.2187-1.922-.3545-3.42 1.553-5.625.75-.97-.3532-1.779-1.7772-2.75-1.8438-2.893-.1972-5.058 1.2982-7.282 3.0313-.194.1513-.5.2739-.781.4062-.738-.3779-1.564-.6524-2.75-.5625-.138.0105-.268.1046-.406.125-2.508-.8628-5.477-1.318-7.438-.6562-.126-.1061-.188-.2582-.343-.3438-.924-.51-1.76-.7814-2.532-.8437-1.43-.116-2.582.5222-3.562 1.5-.239.0015-.481.0216-.719 0-1.183-.1086-2.064-.694-3.312-.5625-2.185.2308-5.046.9048-7.032 1.7187-1.047.4291-1.185 1.9842-2.125 2.4688-2.602 1.3433-5.776 2.1565-8.062 3.8437-1.284-.2203-2.593-.1819-4.094.5625-1.144.5678-2.71 1.7209-3.906 3.0625-1.408.0737-2.852-.1465-4.219.2813-.163.0511-.291.2546-.437.375-.31.0519-.64.0252-.938.125-.75.2514-1.37.7638-2 1.25-1.342-.1054-2.819-.4243-3.937.0312-.951.3873-1.458 1.8521-2.282 2.125-2.493.8265-5.433-.4633-7.906.8125-1.848.9537-3.366 2.6414-5.406 3.5313-1.5.6543-3.525-.2723-5.094.25-1.386.4615-1.45 1.7945-2.594 2.375-2.399 1.2182-4.052 2.1397-5.406 3.125-1.869-.4112-4.172.3611-5.906-.25-1.003-.3537-1.952-1.4081-2.844-1.9688-.222-.1395-.563-.0625-.812-.0625-1.168 0-2.137.3562-3.375.2188-.989-.1098-1.379.0335-2.5.1875-1.106.1515-1.726 2.6804-2.5 3.2184l-.5 4.563c-.504.451-1.299 1.146-1.469 1.312-.02.02-.043.043-.063.063-2.403-.324-4.686-1.306-7.093-1.75-.547-.101-1.09.231-1.657.531-.361-1.065-.582-2.297-1.281-2.969-1.229-1.182-3.393-1.771-5.469-2.218-2.333-1.7276-6.137-1.2036-8.812-1.7192-.811-.1563-2.403-1.0654-3.219-.8437-.764.2081-3.208 1.8126-4.812 2.9999-2.327-1.3699-3.636-3.8218-5.438-5.9999-.942-1.4483-2.101-2.7475-3.406-3.3438-1.085-.4957-3.856-1.6079-4.969-.7812-.08.0598-.143.1793-.219.25-.34-.2426-.684-.555-1-.4688-.364.1-1.058.9881-1.687 1.6875-.843-.2603-1.697-.4971-2.563-.875-.958-.4181-1.64-1.2486-2.468-1.75-.896-.5422-3.576-1.1186-4.157-1.8125-1.718-2.0528-2.555-3.1924-5.468-3.7187-1.874-.3387-3.444.5433-5.313-.4688-.578-.313-.914-1.5393-1.312-2.0312-.968-1.1938-2.885-1.8335-4.407-1.8125-1.244.0172-1.85.8859-2.937 1.25-.461.1545-1.112 1.2244-1.781 2.4062-.036.0063-.124-.007-.157 0-2.792.6031-6.58 1.8719-9 3.4688-1.139.7523-1.889 1.5539-3.281 1.9375-2.765.7621-5.782-.0839-8.406.9687-1.151.4621-1.894 2.8447-3.844 3.75-2.235 1.0378-3.363-1.1735-5.375 1.3125-.024.0304-.038.0945-.062.125-.601-.5027-1.171-1.0454-1.813-1.25-3.891-1.2392-5.113 1.0391-8.375 2.25-2.356.875-4.948 1.2764-7.187 2.5-.964.5269-1.502 1.5424-2.532 2.0312-1.148.545-2.444.69-3.562 1.281-1.177.623-1.725 2.216-2.781 3-1.586 1.177-3.673.983-5.344 1.875-.915.489-1.567 1.101-2.313 1.625-2.306-1.094-4.342-2.346-7.187-2.25-.811.027-5.682 1.744-6.344 2.25-.351.27-.577.662-.844 1.032-1.517-1.017-3.038-1.781-4.562-1.438-.361.082-.566 1.233-.813 1.5-.137.149-.461.457-.656.656-.591-.024-1.242-.165-1.75-.031-.21.055-.375.186-.562.281-1.742.303-3.253 1.37-4.938 2.157-.426.199-.846-.188-1.25.218-.051.052-.02.214-.062.282-.678-.769-1.281-1.773-2.469-1.563-.428.076-.787.363-1.188.531-.3-.163-.537-.375-.875-.5-1.023-.379-2.425-.385-3.5-.375-2.316.023-1.974 2.443-3.406 2.969-3.345 1.23-6.72.189-10.125.25-.556.01-1.004.437-1.5.844-.566-.972-1.025-2.105-1.844-2.625-1.44-.915-3.689-1.099-5.812-1.125-2.63-1.229-6.245.036-8.969.062-.825.008-2.557-.535-3.312-.156-.708.356-2.789 2.392-4.125 3.875-2.552-.881-4.333-3.005-6.532-4.781-1.211-1.232-2.602-2.269-4-2.594-1.161-.27-4.105-.844-5.031.188-.067.074-.096.228-.156.312-.382-.17-.771-.397-1.063-.25-.336.17-.866 1.159-1.343 1.969-.878-.088-1.733-.146-2.657-.344-1.022-.219-1.901-.923-2.812-1.25-.985-.353-3.699-.373-4.406-.937-2.092-1.671-3.166-2.595-6.125-2.532-1.904.041-3.217 1.215-5.25.594-.63-.192-1.231-1.347-1.719-1.75-1.186-.978-3.2-1.229-4.688-.906-1.215.264-1.6 1.239-2.593 1.812-1.988 1.147-3.93 1.085-6.157.75-1.305-.196-3.361-.269-4.562-.75-.842-.336-1.235-1.351-2-1.843-.566-.364-1.268-.414-1.969-.469-.805-1.807-3.001-2.6113-5.093-2.281-2.543.4-5.975 1.373-8.25 2.562-1.211.632-2.168 1.601-3.5 2.031-1.179.381-3.295-.49-4.25.094-2.569 1.569-3.272 2.8-6.438 2.406-1.174-.145-1.803-2.866-4.312-3.187-2.347-.3-6.609-.677-8.688.562-1.422.848-1.235 2.227-3.156 2.469-2.514.317-3.545-2.337-5.594-3.187-1.511-.628-3.276-.54-5-.5-1.086-1.712-2.94-3.25-4.219-4.0004-2.688-1.5779-4.952-.7519-7.406-.1563-.316-.1658-.578-.3437-.906-.5-1.854-1.8226.211-3.1551-4.25-3.4687-.989-.0694-2.098-.264-3.063.0625-.429.145-.807.5137-1.187.875-.21-.0788-.392-.241-.625-.2813-1.182-.2042-2.51.1944-3.625.0625l-.063.875c-.441-.2274-1.26-.3659-2.187-.375-1.007-.0099-2.04.0981-2.563.25-2.743.7975-6.448 2.3311-8.75 4.0937-1.084.831-1.763 1.676-3.125 2.156-2.705.955-5.769.329-8.312 1.563-1.116.542-1.713 2.991-3.594 4.031-2.156 1.192-3.417-.933-5.25 1.688-.022.032-.041.092-.063.125-.635-.46-1.251-.966-1.906-1.125-3.968-.963-5.018 1.375-8.187 2.812-2.289 1.038-4.852 1.622-7 3-.925.593-1.382 1.659-2.375 2.219-1.107.624-2.395.863-3.469 1.531-1.13.704-1.564 2.332-2.563 3.188-.092.079-.216.086-.312.156-1.352-.578-2.722-1.125-3.906-1.469-1.045-.304-4.158-.382-4.938.156-.707.488-1.238 2.423-2.125 2.313-2.212-.275-3.896-2.23-6.187-2.5-3.516-.415-4.781 1.206-7.844 2.094-3.643 1.055-7.546.782-11.188 1.875-.935.28-1.965.879-3 1.5-.01-.011-.02-.021-.031-.032-2.371-2.342-9.511 3.328-12.812 3-4.152-.411-7.964-2.261-12.281-1.562-2.156.349-2.78 2.164-4.469 3.187-.582.353-2.268.019-2.938 0-.976-.027-1.785-.596-2.719-.75-1.052-.173-2.36.674-3.593.375-2.326-.564-5.573-2.352-7.969-1.906-1.112.207-1.394 2.394-2.438 2.813-1.295.519-3.184-.187-4.562-.032-.358.041-.774.23-1.156.313-1.365-.178-3.625-.37-4.375.594-.062.079-.071.224-.125.312-.393-.143-.813-.355-1.094-.187-.265.158-.623.971-.969 1.687-.2.102-.37.233-.562.344-.768-.019-1.529-.009-2.344-.125-1.035-.147-1.943-.769-2.875-1.031-1.008-.284-3.724-.112-4.469-.625-2.204-1.52-3.333-2.396-6.281-2.125-1.896.174-3.147 1.445-5.219.968-.641-.147-1.297-1.257-1.812-1.625-1.252-.892-3.29-.989-4.75-.562-1.194.349-1.519 1.359-2.469 2-1.903 1.283-3.85 1.334-6.094 1.156-1.316-.105-3.362-.011-4.594-.406-.863-.277-1.327-1.281-2.124-1.719-.59-.323-1.298-.306-2-.312-.93-1.746-3.186-2.414-5.25-1.938-2.508.578-5.845 1.811-8.032 3.156-1.163.716-2.044 1.727-3.344 2.25-1.149.463-3.337-.243-4.25.407-.751.534-1.217.895-1.75 1.312-.045-.008-.148-.025-.187-.031-1.895-.279-3.373.589-4.875 1.281-.934-.654-1.861-2.474-3.969-2.594-2.023-.114-5.372-.103-7.562.75-.68-.02-1.358-.022-2.031-.125-.781-.118-1.35-1.013-2.032-1.093-2.354-.277-3.535 1.47-5.468 1.75-.116-.052-.192-.179-.313-.219-.785-.263-1.617-.352-2.469-.344-1.086-.472-2.171-.992-3.281-1.062-.176-.011-.276.059-.437.062-1.108-1.077-2.34-2.017-3.313-2.5-2.853-1.415-5.096-.366-7.563.406-.138-.052-.313-.044-.437-.125-2.811-1.84-.019-3.5-4.813-3.5-.991 0-2.123-.112-3.062.282-.418.174-.771.55-1.125.937-.215-.064-.389-.195-.625-.219-1.193-.12-2.503.366-3.625.313v5.156c-.655-.458-1.335-.89-2.25-1-2.903-.349-6.021.48-8.875-.281-2.728-.727-4.312-3.661-7.375-3.406-2.376.198-3.5 3.595-7.187 3.375-3.381-.202-5.896-3.493-9.313-3.782-3.681-.31-7.231 1.371-10.187 3.532-.036.025-.059.068-.094.093-2.065 1.005-3.896 2.68-5.75 4-1.334.95-3.016 1.107-4.469 1.813-2.058 1-3.867 2.437-6 3.344-2.971 1.262-3.104-2.55-5.313-2.782-1.733-.182-4.58-.392-6.218.125-2.315.732-1.512 2.043-4.906 1.594-2.536-.336-4.385-3.373-7.032-3.219-2.813.165-5.605 2.431-7.281 4.5-.904 1.116-2.064 3.437-3.687 3.625-2.3278.269-3.7712-.122-5.6255-1.437-.8041-.57-2.2414-2.433-3.375-1.969-.5935.243-.6882 1.079-1.2813 1.375-1.6105.803-3.6955.753-5.4062 1.469-1.9591.819-2.9984 2.549-5.3125 2.75-1.3028.113-3.5125.293-4.6563-.375-.8838-.517-1.2513-2.023-2.3124-2.219-1.9213-.354-3.4196 1.553-5.625.75-.9701-.353-1.7786-1.777-2.75-1.844-2.8929-.197-5.0579 1.299-7.2813 3.032-.296.23-.7646.453-1.1875.625-.3928-.253-.6351-.347-.7188-.188-1.778.311-3.8101-.433-5.4687.5-1.9513 1.099-1.9778 3.972-4.5625 4.438-2.0984.378-3.5775-.611-5.5-.844-1.5485-.188-2.6531.969-4.0625 1.25-1.1904.236-2.7004-.479-4.0313-.344-.2358.024-.4102.155-.625.219-.3539-.387-.7073-.763-1.125-.938-.9393-.393-2.071-.281-3.0624-.281-4.7941 0-2.002 1.66-4.8126 3.5-.1238.081-.299.073-.4374.125-2.4669-.772-4.7098-1.821-7.5626-.406-1.328.659-3.296 2.056-4.5 3.687-1.7173-.16-3.44839-.363-4.99995.157-1.17911.395-2.11094 1.295-3.125 1.968h-2.28125v.782 175.843h3057.44v-175.781-.844h-.78c-.97-1.146-2.06-2.455-2.5-2.718-.73-.432-2.49.003-3.32-.063-2.71-.217-6.22-1.729-8.93-.687-2.12-.123-4.38-.124-5.88.687-.85.461-1.4 1.57-2.03 2.5-.47-.44-.88-.888-1.44-.937-3.39-.3-6.84.492-10.09-.969-1.39-.626-.88-3.003-3.19-3.188-1.07-.085-2.45-.181-3.5.125-.34.101-.59.296-.9.438-.39-.196-.74-.52-1.16-.625-1.17-.293-1.83.656-2.56 1.375-.04-.071-.02-.226-.07-.281-.37-.434-.8-.053-1.21-.282-1.63-.902-3.07-2.076-4.79-2.5-.18-.108-.32-.273-.53-.343-.49-.17-1.16-.077-1.75-.094-.18-.213-.5-.529-.62-.688-.23-.283-.34-1.456-.69-1.562-1.5-.45-3.07.218-4.66 1.125-.24-.387-.45-.801-.78-1.094-.62-.552-5.35-2.603-6.15-2.687-.22-.023-.39.069-.6.062v-.437s-1.4.182-1.43.187c-.51-.108-1.15-.514-1.54-.812-2.22-1.733-4.38-3.229-7.28-3.032-.97.067-1.78 1.491-2.75 1.844-.27.098-.5.036-.75.063-.11-.08-.26-.065-.37-.157-1-.856-1.43-2.484-2.57-3.187-1.07-.668-2.36-.907-3.46-1.531-1-.56-1.45-1.626-2.38-2.219-2.15-1.378-4.71-1.962-7-3-3.17-1.437-4.22-3.776-8.19-2.813-.65.159-1.27.666-1.9 1.125-.02-.032-.04-.093-.07-.125-1.83-2.621-3.09-.495-5.24-1.687-1.89-1.04-2.48-3.49-3.6-4.031-2.54-1.235-5.61-.609-8.31-1.563-1.36-.48-2.04-1.326-3.13-2.156-2.3-1.763-6-3.296-8.75-4.094-.52-.152-1.55-.26-2.56-.25s-1.98.137-2.37.406c-.71.488-1.24 2.422-2.13 2.313-2.21-.275-3.9-2.23-6.19-2.5-3.51-.415-4.78 1.206-7.84 2.094-3.64 1.055-7.55.782-11.19 1.875-.93.28-1.96.879-3 1.5-.01-.011-.02-.022-.03-.032-2.37-2.342-9.51 3.328-12.81 3-4.15-.411-7.96-2.261-12.28-1.562-2.16.349-2.78 2.164-4.47 3.187-.58.353-2.27.019-2.94 0-.97-.027-1.78-.596-2.72-.75-1.05-.173-2.36.674-3.59.375-2.33-.564-5.57-2.352-7.97-1.906-1.11.207-1.39 2.394-2.44 2.813-1.29.519-3.18-.187-4.56-.032-2.18.246-4.91 1.383-6.94 2.219-.18.075-.29.23-.47.313-.67-.232-1.38-.434-2.31-.375-1.64.103-3.2 1.265-4.84 1.593-1.52-.813-2.63-1.624-4.69-1.437-.58-.231-1.23-.372-2-.281-.68.08-1.25.975-2.03 1.093-2.24.34-4.53-.048-6.75.657-1.17.37-1.88 1.741-3.25 2-3.12.587-5.14-2.454-8.44-1.969-.81.119-3.08.681-3.62 1.25-.84.878-1.06 2.001-2.54 2.156-2.4.254-3.01-1.781-5.06-2.062-1.12-.154-1.95.889-2.94 1-.67.075-1.25-.044-1.84-.125-.02-.012-.04-.02-.06-.032-.22-.139-.56-.062-.81-.062-.11 0-.21.026-.32.031-.11-.006-.22-.031-.34-.031-.25 0-.59-.077-.81.062-.02.012-.05.02-.06.032-.6.081-1.17.2-1.85.125-.99-.11-1.82-1.155-2.94-1-2.05.281-2.65 2.316-5.06 2.062-1.47-.156-1.69-1.278-2.53-2.156-.54-.57-2.81-1.13-3.62-1.25-3.3-.485-5.33 2.556-8.44 1.969-1.38-.259-2.08-1.63-3.25-2-2.22-.705-4.52-.317-6.75-.657-.78-.118-1.35-1.012-2.03-1.093-.77-.091-1.39.051-1.97.281-2.08-.196-3.2.621-4.72 1.437-1.65-.33-3.2-1.49-4.84-1.593-.95-.06-1.63.138-2.32.375-.17-.083-.28-.238-.47-.313-2.03-.835-4.76-1.974-6.93-2.219-1.38-.155-3.27.551-4.57.032-1.04-.419-1.32-2.607-2.43-2.813-2.4-.445-5.65 1.342-7.97 1.906-1.24.299-2.54-.548-3.6-.375-.93.154-1.74.724-2.71.75-.68.019-2.36.353-2.94 0-1.69-1.023-2.32-2.839-4.47-3.187-4.32-.699-8.13 1.151-12.28 1.562-3.3.328-10.44-5.342-12.81-3-.02.011-.03.021-.04.032-1.03-.621-2.06-1.22-3-1.5-3.64-1.093-7.54-.82-11.18-1.875-3.07-.888-4.33-2.509-7.85-2.094-2.29.27-3.97 2.225-6.19 2.5-.88.11-1.41-1.825-2.12-2.313-.39-.269-1.34-.365-2.34-.375-1.01-.009-2.07.067-2.6.219-1.8.525-3.91 1.419-5.87 2.438-.14-.068-1.08-.793-1.13-.782-1.23-1.572-3.16-3.751-3.84-4.156-.73-.431-2.49.004-3.31-.062-2.72-.218-6.23-1.729-8.94-.688-2.12-.123-4.38-.124-5.88.688-.85.461-1.39 1.57-2.03 2.5-.46-.441-.88-.889-1.44-.938-3.39-.299-6.84.493-10.09-.969-1.39-.625-.88-3.002-3.19-3.187-1.07-.086-2.45-.182-3.5.125-.34.101-.59.295-.9.437-.39-.196-.74-.519-1.16-.625-1.17-.292-1.83.657-2.56 1.375-.04-.07-.02-.226-.06-.281-.38-.433-.81-.053-1.22-.281-1.63-.903-3.07-2.076-4.78-2.5-.18-.108-.33-.274-.54-.344-.49-.169-1.15-.077-1.74-.094-.19-.212-.5-.529-.63-.687-.23-.284-.33-1.456-.69-1.563-1.49-.449-3.07.218-4.65 1.125-.24-.387-.45-.8-.79-1.093-.62-.552-5.34-2.604-6.15-2.688-2.83-.296-4.97.82-7.35 1.75-.7-.575-1.3-1.229-2.18-1.781-1.61-1.008-3.69-.965-5.19-2.25-1-.856-1.43-2.484-2.56-3.188-1.08-.668-2.36-.906-3.47-1.531-.99-.56-1.45-1.6253-2.38-2.2187-2.14-1.3778-4.71-1.9617-7-3-3.16-1.4368-4.22-3.7757-8.18-2.8125-.66.159-1.28.6658-1.91 1.125-.02-.0322-.04-.0929-.06-.125-1.84-2.6209-3.1-.4954-5.25-1.6875-1.88-1.04-2.48-3.4893-3.6-4.0312-2.54-1.2342-5.6-.6081-8.31-1.5625-1.36-.4804-2.04-1.3257-3.12-2.1563-2.31-1.7626-6.01-3.2962-8.75-4.0937-.18-.0518-.6-.0289-.88-.0625-3.58-1.7328-9.53-2.8415-12.06-2.3125-2.2.4594-3.65 2.4642-6.03 2.1562-1.92-.2482-2.83-1.9464-4.38-2.5312-1.98-.7504-4.16 1.0904-6.12.7812-.98-.1549-1.82-1.0008-2.81-1.2187-1.25-.2731-2.75.2916-3.94-.1875-1.89-.7609-3.33-1.7946-5.41-1.9063-2.42-.1295-3.79 1.7531-5.94 1.5938-2.4-.1787-3.22-2.9905-6.81-2.7188-.14.0105-.27.1046-.4.125-2.51-.8628-5.48-1.318-7.44-.6562-.13-.1061-.19-.2582-.35-.3438-.92-.51-1.76-.7814-2.53-.8437-1.43-.116-2.58.5222-3.56 1.5-.24.0015-.48.0216-.72 0-1.18-.1086-2.06-.694-3.31-.5625-.91.0964-1.9.4897-2.94.7187-2.11-1.6277-4.21-3.0004-6.97-2.8125-.97.0663-1.78 1.4908-2.75 1.8438-.27.0981-.5.0361-.75.0625-.11-.0792-.27-.0643-.37-.1563-1-.8561-1.43-2.4839-2.57-3.1875-1.07-.6682-2.36-.9066-3.46-1.5312-1-.5599-1.45-1.6255-2.38-2.2188-2.15-1.3778-4.71-1.9616-7-3-3.17-1.4368-4.22-3.7753-8.19-2.8125-.65.159-1.27.6659-1.9 1.125-.02-.0322-.04-.0928-.07-.125-1.83-2.6209-3.09-.4954-5.24-1.6875-1.89-1.04-2.48-3.4894-3.6-4.0312-2.54-1.2342-5.61-.6083-8.31-1.5625-1.36-.4804-2.04-1.3257-3.13-2.1563-2.3-1.7626-6-3.2962-8.75-4.0937-.52-.1519-1.55-.2599-2.56-.25-1.01.0098-1.98.1372-2.37.4062-.71.4881-1.24 2.4222-2.13 2.3125-2.21-.2745-3.9-2.2299-6.19-2.5-3.51-.4145-4.78 1.2064-7.84 2.0938-3.64 1.0553-7.55.7829-11.19 1.875-.93.2807-1.96.8792-3 1.5-.01-.0106-.02-.0211-.03-.0313-2.37-2.342-9.51 3.3273-12.81 3-4.15-.4117-7.96-2.261-12.28-1.5625-2.16.3487-2.78 2.1638-4.47 3.1875-.58.3527-2.27.0191-2.94 0-.97-.0268-1.78-.5964-2.72-.75-1.05-.1731-2.36.6741-3.59.375-2.33-.5638-5.57-2.352-7.97-1.9062-1.11.2066-1.39 2.3937-2.44 2.8125-1.29.5192-3.18-.1862-4.56-.0313-2.18.2452-4.91 1.383-6.94 2.2188-.18.0752-.29.2296-.47.3125-.67-.232-1.38-.4336-2.31-.375-1.64.1034-3.2 1.2656-4.84 1.5937-1.52-.8136-2.63-1.6243-4.69-1.4375-.58-.2312-1.23-.3719-2-.2812-.68.0803-1.25.9756-2.03 1.0937-2.24.3395-4.53-.0481-6.75.6563-1.17.3704-1.88 1.741-3.25 2-3.12.5877-5.14-2.4536-8.44-1.9688-.81.1194-3.08.6808-3.62 1.25-.84.8784-1.06 2.0009-2.54 2.1563-2.4.254-3.01-1.7812-5.06-2.0625-1.12-.1538-1.95.8898-2.94 1-.67.0751-1.25-.044-1.84-.125-.02-.0116-.04-.02-.06-.0313-.22-.1395-.57-.0625-.81-.0625-.11 0-.21.0258-.32.0313-.11-.0065-.22-.0313-.34-.0313-.25 0-.59-.077-.81.0625-.02.0112-.05.02-.06.0313-.6.081-1.17.2001-1.85.125-.99-.1098-1.82-1.1542-2.94-1-2.05.281-2.65 2.3165-5.06 2.0625-1.47-.1557-1.69-1.2779-2.53-2.1563-.54-.5696-2.81-1.1303-3.62-1.25-3.3-.4851-5.33 2.5565-8.44 1.9688-1.38-.2588-2.08-1.6299-3.25-2-2.22-.7044-4.52-.3165-6.75-.6563-.78-.1183-1.35-1.0127-2.03-1.0937-.77-.0904-1.39.0509-1.97.2812-2.08-.1954-3.2.6207-4.72 1.4375-1.65-.3301-3.21-1.4903-4.84-1.5937-.95-.0593-1.63.1381-2.32.375-.17-.0829-.28-.2375-.47-.3125-2.03-.8355-4.75-1.9739-6.93-2.2188-1.38-.1549-3.27.5505-4.57.0313-1.04-.4181-1.32-2.6062-2.43-2.8125-2.4-.4451-5.65 1.3424-7.97 1.9062-1.24.2991-2.54-.5484-3.6-.375-.93.1536-1.74.7235-2.71.75-.68.0184-2.36.3531-2.94 0-1.69-1.0237-2.32-2.8388-4.47-3.1875-4.32-.6985-8.13 1.1511-12.28 1.5625-3.3.3273-10.44-5.342-12.81-3-.02.0105-.03.0208-.04.0313-1.03-.6208-2.06-1.2194-3-1.5-3.64-1.0924-7.54-.8194-11.18-1.875-3.07-.8874-4.33-2.5083-7.85-2.0938-2.29.2701-3.97 2.2257-6.19 2.5-.88.11-1.41-1.8244-2.12-2.3125-.39-.2689-1.34-.3654-2.34-.375-1.01-.0098-2.07.0667-2.6.2188-1.8.5251-3.91 1.4189-5.87 2.4375-.14-.0676-1.08-.7931-1.13-.7813-1.23-1.5728-3.16-3.7516-3.84-4.1562-.73-.4314-2.49.0034-3.31-.0625-2.72-.2174-6.23-1.729-8.94-.6875-2.12-.123-4.38-.1239-5.88.6875-.85.4612-1.39 1.57-2.03 2.5-.46-.4403-.88-.8883-1.44-.9375-3.39-.2994-6.84.4926-10.09-.9688-1.39-.6254-.88-3.0026-3.19-3.1875-1.07-.0856-2.45-.1816-3.5.125-.34.1011-.59.2956-.9.4375-.39-.196-.74-.5195-1.16-.625-1.17-.2924-1.83.6563-2.56 1.375-.04-.0706-.02-.2259-.06-.2812-.38-.4334-.81-.0527-1.22-.2813-1.63-.9026-3.07-2.0761-4.78-2.5-.18-.1079-.33-.2737-.54-.3437-.49-.1694-1.15-.0766-1.74-.0938-.19-.2124-.5-.5292-.63-.6875-.23-.2834-.33-1.4559-.69-1.5625-1.49-.4496-3.07.2179-4.65 1.125-.24-.3872-.45-.8005-.79-1.0937-.62-.5516-5.34-2.6033-6.15-2.6875-2.83-.2957-4.97.8199-7.35 1.75-.7-.575-1.3-1.229-2.18-1.7813-1.61-1.0077-3.69-.9646-5.19-2.25-1-.8561-1.43-2.484-2.56-3.1875-1.08-.6682-2.36-.9067-3.47-1.5312-.99-.5599-1.45-1.6254-2.38-2.2188-2.14-1.3778-4.71-1.9617-7-3-3.16-1.4368-4.21-3.7757-8.18-2.8125-.66.159-1.28.6658-1.91 1.125-.02-.0322-.04-.0929-.06-.125-1.84-2.6209-3.1-.4954-5.25-1.6875-1.88-1.04-2.48-3.4893-3.6-4.0312-2.54-1.2342-5.6-.6083-8.31-1.5625-1.36-.4804-2.04-1.3257-3.12-2.1563-2.31-1.7626-6.01-3.29623-8.75-4.09373-.18-.05178-.6-.02884-.88-.0625-3.58-1.73275-9.53-2.84145-12.06-2.3125-2.2.45938-3.65 2.46421-6.03 2.15625-1.92-.24819-2.83-1.94635-4.38-2.53125-1.98-.75032-4.16 1.09039-6.12.78125-.98-.15496-1.82-1.00086-2.81-1.21875-1.25-.27311-2.75.2916-3.94-.1875-1.89-.76088-3.33-1.79453-5.41-1.90625-2.42-.12955-3.79 1.75308-5.94 1.59375-2.4-.17871-3.22-2.99051-6.81-2.71875-.14.01052-.27.10461-.4.125-2.51-.862771-5.48-1.318055-7.44-.65625-.13-.10609-.19-.258125-.35-.343745-.92-.510004-1.76-.7814366-2.53-.8437502z"/></g></svg>